<svg width="14" height="15" viewBox="0 0 14 15" fill="none" xmlns="http://www.w3.org/2000/svg">
<path d="M5.5 12C5.69891 12 5.88968 11.921 6.03033 11.7803C6.17098 11.6397 6.25 11.4489 6.25 11.25V6.75C6.25 6.55109 6.17098 6.36032 6.03033 6.21967C5.88968 6.07902 5.69891 6 5.5 6C5.30109 6 5.11032 6.07902 4.96967 6.21967C4.82902 6.36032 4.75 6.55109 4.75 6.75V11.25C4.75 11.4489 4.82902 11.6397 4.96967 11.7803C5.11032 11.921 5.30109 12 5.5 12ZM13 3H10V2.25C10 1.65326 9.76295 1.08097 9.34099 0.65901C8.91903 0.237053 8.34674 0 7.75 0H6.25C5.65326 0 5.08097 0.237053 4.65901 0.65901C4.23705 1.08097 4 1.65326 4 2.25V3H1C0.801088 3 0.610322 3.07902 0.46967 3.21967C0.329018 3.36032 0.25 3.55109 0.25 3.75C0.25 3.94891 0.329018 4.13968 0.46967 4.28033C0.610322 4.42098 0.801088 4.5 1 4.5H1.75V12.75C1.75 13.3467 1.98705 13.919 2.40901 14.341C2.83097 14.7629 3.40326 15 4 15H10C10.5967 15 11.169 14.7629 11.591 14.341C12.0129 13.919 12.25 13.3467 12.25 12.75V4.5H13C13.1989 4.5 13.3897 4.42098 13.5303 4.28033C13.671 4.13968 13.75 3.94891 13.75 3.75C13.75 3.55109 13.671 3.36032 13.5303 3.21967C13.3897 3.07902 13.1989 3 13 3ZM5.5 2.25C5.5 2.05109 5.57902 1.86032 5.71967 1.71967C5.86032 1.57902 6.05109 1.5 6.25 1.5H7.75C7.94891 1.5 8.13968 1.57902 8.28033 1.71967C8.42098 1.86032 8.5 2.05109 8.5 2.25V3H5.5V2.25ZM10.75 12.75C10.75 12.9489 10.671 13.1397 10.5303 13.2803C10.3897 13.421 10.1989 13.5 10 13.5H4C3.80109 13.5 3.61032 13.421 3.46967 13.2803C3.32902 13.1397 3.25 12.9489 3.25 12.75V4.5H10.75V12.75ZM8.5 12C8.69891 12 8.88968 11.921 9.03033 11.7803C9.17098 11.6397 9.25 11.4489 9.25 11.25V6.75C9.25 6.55109 9.17098 6.36032 9.03033 6.21967C8.88968 6.07902 8.69891 6 8.5 6C8.30109 6 8.11032 6.07902 7.96967 6.21967C7.82902 6.36032 7.75 6.55109 7.75 6.75V11.25C7.75 11.4489 7.82902 11.6397 7.96967 11.7803C8.11032 11.921 8.30109 12 8.5 12Z" fill="#FF8769"/>
</svg>
